<svg viewBox="-260.9675236806495 -162.48496645568986 521.935047361299 262.48496645568986" xmlns="http://www.w3.org/2000/svg" xmlns:xlink="http://www.w3.org/1999/xlink" version="1.1" class="jsx-2263963463 artboard-inner" style="width: 339px; height: 170.486px; max-height: 100%;" stroke="none" fill="#000000" stroke-width="1px"><g transform="translate(-265.1623815967523 97.97023004059538) scale(1.8794166290783336)" fill="#232323" stroke="none" stroke-width="1px"><g id="line1" stroke="none" fill="#232323" stroke-width="1px"><path d="M40.032-52.128L29.232-52.128L29.232-32.976C28.368-34.344 25.704-36.648 19.584-36.648C9.432-36.648 2.232-28.656 2.232-18.000C2.232-6.984 9.864 0.792 19.944 0.792C24.264 0.792 27.864-1.008 29.520-3.456C29.520-2.016 29.736-0.432 29.808 0L40.320 0C40.248-0.792 40.032-3.168 40.032-6.408ZM13.248-17.928C13.248-23.904 17.064-26.784 21.312-26.784C25.560-26.784 29.376-23.904 29.376-17.928C29.376-12.024 25.560-9.000 21.312-9.000C17.064-9.000 13.248-12.024 13.248-17.928Z" stroke="none" fill="#232323" stroke-width="1px"></path><path d="M55.966-22.176C56.182-24.840 58.486-28.224 63.094-28.224C68.278-28.224 70.150-24.912 70.294-22.176ZM71.086-12.888C70.078-10.080 67.846-8.208 63.886-8.208C59.638-8.208 55.966-11.088 55.750-15.120L80.662-15.120C80.734-15.336 80.878-16.992 80.878-18.504C80.878-30.024 74.038-36.864 62.950-36.864C53.662-36.864 45.094-29.520 45.094-18.000C45.094-5.976 53.878 1.080 63.742 1.080C72.814 1.080 78.502-4.104 80.230-10.296Z" stroke="none" fill="#232323" stroke-width="1px"></path><path d="M96.667 0L96.667-52.128L85.723-52.128L85.723 0Z" stroke="none" fill="#232323" stroke-width="1px"></path><path d="M120.521-9.000C116.417-9.000 112.457-11.952 112.457-17.928C112.457-23.976 116.417-26.784 120.521-26.784C124.697-26.784 128.585-23.976 128.585-17.928C128.585-11.880 124.697-9.000 120.521-9.000ZM120.521-36.864C109.865-36.864 101.513-29.016 101.513-17.928C101.513-6.840 109.865 1.080 120.521 1.080C131.249 1.080 139.529-6.840 139.529-17.928C139.529-29.016 131.249-36.864 120.521-36.864Z" stroke="none" fill="#232323" stroke-width="1px"></path><path d="M167.126-35.784C166.406-36.000 165.326-36.144 164.246-36.144C161.366-36.144 156.830-34.992 154.958-30.960L154.958-35.784L144.374-35.784L144.374 0L155.318 0L155.318-15.624C155.318-22.752 159.278-25.344 163.670-25.344C164.750-25.344 165.902-25.272 167.126-24.984Z" stroke="none" fill="#232323" stroke-width="1px"></path><path d="M179.460-22.176C179.676-24.840 181.980-28.224 186.588-28.224C191.772-28.224 193.644-24.912 193.788-22.176ZM194.580-12.888C193.572-10.080 191.340-8.208 187.380-8.208C183.132-8.208 179.460-11.088 179.244-15.120L204.156-15.120C204.228-15.336 204.372-16.992 204.372-18.504C204.372-30.024 197.532-36.864 186.444-36.864C177.156-36.864 168.588-29.520 168.588-18.000C168.588-5.976 177.372 1.080 187.236 1.080C196.308 1.080 201.996-4.104 203.724-10.296Z" stroke="none" fill="#232323" stroke-width="1px"></path><path d="M207.058-9.864C207.058-4.176 211.594 1.008 219.442 1.008C224.194 1.008 227.650-1.008 229.522-4.032C229.522-1.584 229.810-0.288 229.882 0L239.746 0C239.674-0.360 239.314-2.736 239.314-5.544L239.314-23.040C239.314-30.384 235.066-36.864 223.474-36.864C212.962-36.864 208.210-30.096 207.778-24.984L217.282-23.040C217.498-25.704 219.586-28.296 223.402-28.296C226.858-28.296 228.658-26.496 228.658-24.408C228.658-23.184 228.010-22.248 226.066-21.960L217.642-20.664C211.738-19.800 207.058-16.200 207.058-9.864ZM222.106-6.912C219.082-6.912 217.858-8.712 217.858-10.584C217.858-13.104 219.586-14.184 221.890-14.544L228.658-15.624L228.658-14.040C228.658-8.496 225.346-6.912 222.106-6.912Z" stroke="none" fill="#232323" stroke-width="1px"></path><path d="M257.263-20.520C257.263-24.120 259.567-26.784 263.167-26.784C267.127-26.784 268.999-24.120 268.999-20.592L268.999 0L279.943 0L279.943-22.464C279.943-30.312 275.911-36.720 266.911-36.720C263.239-36.720 258.847-35.064 256.903-31.680L256.903-35.784L246.319-35.784L246.319 0L257.263 0Z" stroke="none" fill="#232323" stroke-width="1px"></path></g></g><g transform="translate(-1220.445806561147 -974.4288525143454) scale(2.8996450513501757)" id="logomark" stroke="none" fill="#000000" stroke-width="1px"><g fill="#232323" stroke="none" stroke-width="1px"><path d="M394.079 325.705c-4.074 0-7.389-3.315-7.389-7.389s3.315-7.389 7.389-7.389 7.389 3.315 7.389 7.389-3.314 7.389-7.389 7.389zm0-13.047a5.665 5.665 0 0 0-5.658 5.657c0 3.12 2.538 5.658 5.658 5.658s5.658-2.538 5.658-5.658a5.664 5.664 0 0 0-5.658-5.657z" stroke="none" fill="#232323" stroke-width="1px"></path><path d="M394.079 322.991c-2.578 0-4.676-2.098-4.676-4.676s2.098-4.676 4.676-4.676c2.578 0 4.676 2.098 4.676 4.676s-2.097 4.676-4.676 4.676zm0-7.966c-1.814 0-3.291 1.476-3.291 3.291s1.476 3.291 3.291 3.291 3.291-1.476 3.291-3.291-1.476-3.291-3.291-3.291zM446.262 325.705c-4.074 0-7.389-3.315-7.389-7.389s3.315-7.389 7.389-7.389 7.389 3.315 7.389 7.389-3.315 7.389-7.389 7.389zm0-13.047a5.664 5.664 0 0 0-5.657 5.657 5.664 5.664 0 0 0 5.657 5.658 5.664 5.664 0 0 0 5.658-5.658 5.664 5.664 0 0 0-5.658-5.657z" stroke="none" fill="#232323" stroke-width="1px"></path><path d="M446.262 322.991c-2.578 0-4.676-2.098-4.676-4.676s2.098-4.676 4.676-4.676c2.578 0 4.676 2.098 4.676 4.676s-2.098 4.676-4.676 4.676zm0-7.966c-1.814 0-3.291 1.476-3.291 3.291s1.476 3.291 3.291 3.291 3.291-1.476 3.291-3.291-1.477-3.291-3.291-3.291zM438.069 322.357h-35.791a.867.867 0 0 1-.818-1.15l.235-.677h-1.232a.866.866 0 0 1 0-1.732h2.45a.864.864 0 0 1 .818 1.15l-.235.677h33.141l-.546-1.041a.867.867 0 0 1 .766-1.269h2.944a.866.866 0 0 1 0 1.732h-1.512l.546 1.041a.867.867 0 0 1-.766 1.269z" stroke="none" fill="#232323" stroke-width="1px"></path><path d="M452.785 320.047a.867.867 0 0 1-.246-1.697l7.5-2.227c1.322-5.41.216-9.279-.208-10.46l-22.033-5.072h-16.763l-13.814 5.594a.848.848 0 0 1-.216.056l-19.935 2.528-7.429 2.711-.703 2.062a.882.882 0 0 1-.207.333l-1.103 1.103v.623h.981c.145 0 .289.037.416.107l2.75 1.507h5.788a.866.866 0 0 1 0 1.732h-6.01a.864.864 0 0 1-.416-.107l-2.75-1.507h-1.626a.866.866 0 0 1-.866-.866v-1.847c0-.23.091-.45.254-.612l1.214-1.214.772-2.263a.868.868 0 0 1 .523-.534l7.909-2.887a.938.938 0 0 1 .188-.046l19.92-2.526 13.866-5.615a.862.862 0 0 1 .325-.063h17.03c.065 0 .131.007.194.022l22.572 5.196c.261.06.479.237.591.48.095.205 2.303 5.103.34 12.479a.865.865 0 0 1-.59.607l-7.971 2.367a.844.844 0 0 1-.247.036z" stroke="none" fill="#232323" stroke-width="1px"></path><path d="M410.532 309.021a.693.693 0 0 1-.333-1.3l11.267-6.177a.693.693 0 0 1 .333-.085h11.362c.383 0 .693.31.693.693v5.542a.692.692 0 0 1-.673.692l-22.629.635h-.02zm11.444-6.177l-8.593 4.711 19.085-.536v-4.175h-10.492z" stroke="none" fill="#232323" stroke-width="1px"></path><path d="M417 308.732a.606.606 0 0 1-.319-1.122l5.482-3.377a.607.607 0 0 1 .318-.09h6.004c.218 0 .419.117.527.307l1.731 3.043a.605.605 0 1 1-1.053.599l-1.557-2.737h-5.48l-5.336 3.287a.598.598 0 0 1-.317.09zM455.965 307.693h-17.723a.866.866 0 0 1-.866-.866v-7.101a.866.866 0 0 1 1.732 0v6.235h15.739l-.527-2.045a.867.867 0 0 1 1.677-.433l.806 3.127a.867.867 0 0 1-.838 1.083z" stroke="none" fill="#232323" stroke-width="1px"></path><path d="M443.381 307.434a.605.605 0 0 1-.503-.268l-1.554-2.309a.608.608 0 0 1-.103-.338v-3.887a.606.606 0 1 1 1.212 0v3.702l1.451 2.156a.606.606 0 0 1-.503.944zM446.263 307.434a.605.605 0 0 1-.503-.268l-1.554-2.309a.608.608 0 0 1-.103-.338v-3.224a.606.606 0 1 1 1.212 0v3.039l1.451 2.156a.606.606 0 0 1-.503.944zM448.976 307.434a.605.605 0 0 1-.503-.268l-1.554-2.309a.608.608 0 0 1-.103-.338v-2.599a.606.606 0 1 1 1.212 0v2.414l1.451 2.156a.606.606 0 0 1-.503.944zM439.519 300.966a.865.865 0 0 1-.612-1.478l14.356-14.356a.865.865 0 1 1 1.224 1.225l-14.356 14.356a.86.86 0 0 1-.612.253z" stroke="none" fill="#232323" stroke-width="1px"></path><path d="M453.203 286.622a.347.347 0 0 1-.245-.592l1.5-1.5c.083-.114.361-.452.785-.528.273-.049.55.021.802.204a.33.33 0 0 1 .064.06c.084.1.37.368.663.386.151.01.297-.05.441-.181l1.492-1.606a.279.279 0 0 1 .044-.04c.001-.001.315-.253.326-.638.009-.335-.204-.698-.634-1.078-.103-.093-.997-.85-1.891-.007a.347.347 0 0 1-.476-.504c1.106-1.043 2.334-.458 2.83-.003.591.522.883 1.071.862 1.625-.023.63-.453 1.036-.57 1.135l-1.485 1.6-.018.018c-.287.267-.621.395-.97.372-.566-.038-.989-.457-1.115-.597-.114-.074-.192-.071-.242-.062-.169.031-.324.217-.353.262a.384.384 0 0 1-.044.054l-1.521 1.521a.356.356 0 0 1-.245.099zM460.923 317.02a.867.867 0 0 1-.443-1.611l2.49-1.476a.869.869 0 0 1 .442-.121h.416l.275-1.721-.957-.958a.867.867 0 0 1-.244-.485l-.462-3.117a.868.868 0 0 1 .192-.682l.626-.75.26-4.064-1.336-3.916-9.741 5.606a.866.866 0 1 1-.864-1.502l10.652-6.13a.867.867 0 0 1 1.252.471l1.732 5.074a.866.866 0 0 1 .045.335l-.289 4.518a.867.867 0 0 1-.2.5l-.559.669.363 2.45 1.068 1.068a.866.866 0 0 1 .243.749l-.462 2.886a.866.866 0 0 1-.855.729h-.917l-2.285 1.355a.855.855 0 0 1-.442.123zM448.807 303.133a1.472 1.472 0 0 1-1.427-1.839l.908-3.539a1.471 1.471 0 1 1 2.852.732l-.908 3.539a1.473 1.473 0 0 1-1.425 1.107zM437.434 297.822l-.029-.001-4.156-.347a.346.346 0 1 1 .058-.69l4.157.347a.346.346 0 0 1-.03.691zM437.087 299.146h-3.233a.346.346 0 0 1 0-.692h3.233a.346.346 0 0 1 0 .692z" stroke="none" fill="#232323" stroke-width="1px"></path><path d="M435.702 298.973a.346.346 0 0 1-.346-.346v-.978a.346.346 0 0 1 .692 0v.978c0 .19-.155.346-.346.346zM428.022 315.025h-2.021a.693.693 0 1 1 0-1.386h2.021a.693.693 0 1 1 0 1.386z" stroke="none" fill="#232323" stroke-width="1px"></path><circle cx="431.21" cy="309.813" r=".359" stroke="none" fill="#232323" stroke-width="1px"></circle><path d="M426.581 319.787h-16.626a.779.779 0 0 1-.76-.609l-3.06-13.624a.78.78 0 0 1 1.521-.341l2.923 13.015h15.644l8.47-9.899v-8.602a.78.78 0 0 1 1.558 0v8.89a.78.78 0 0 1-.187.507l-8.89 10.391a.782.782 0 0 1-.593.272zM385.304 315.775h-1.616a.693.693 0 1 1 0-1.386h1.616a.693.693 0 1 1 0 1.386zM382.014 316.526a.693.693 0 0 1-.693-.693v-.981a.693.693 0 1 1 1.386 0v.981a.693.693 0 0 1-.693.693zM389.593 313.697h-11.476a.433.433 0 0 1 0-.866h11.476a.433.433 0 0 1 0 .866z" stroke="none" fill="#232323" stroke-width="1px"></path><path d="M408.665 313.697h-10.458a.433.433 0 0 1 0-.866h10.458a.433.433 0 0 1 0 .866zM442.135 313.697h-10.64a.433.433 0 0 1 0-.866h10.64a.433.433 0 0 1 0 .866zM461.416 313.697h-11.027a.433.433 0 0 1 0-.866h11.027a.433.433 0 0 1 0 .866z" stroke="none" fill="#232323" stroke-width="1px"></path><path d="M431.916 313.322h-23.582a.433.433 0 0 1 0-.866h23.582a.433.433 0 0 1 0 .866z" stroke="none" fill="#232323" stroke-width="1px"></path></g></g></svg>